<svg width="24" height="24" viewBox="0 0 24 24" fill="none" xmlns="http://www.w3.org/2000/svg">
<g clip-path="url(#clip0_3_19)">
<path d="M23.4729 20.3261C23.1202 18.7903 22.4665 17.3396 21.5495 16.0581C20.6326 14.7766 19.4706 13.6896 18.1309 12.8601C19.0373 11.6749 19.5943 10.2598 19.7388 8.77472C19.8833 7.28963 19.6096 5.79373 18.9486 4.45603C18.2876 3.11833 17.2656 1.99215 15.9982 1.20472C14.7308 0.417288 13.2685 0 11.7764 0C10.2843 0 8.82192 0.417288 7.55452 1.20472C6.28712 1.99215 5.26519 3.11833 4.6042 4.45603C3.9432 5.79373 3.66949 7.28963 3.81398 8.77472C3.95848 10.2598 4.51542 11.6749 5.42188 12.8601C4.08097 13.6882 2.91801 14.7747 2.00061 16.0562C1.0832 17.3377 0.42963 18.7888 0.0778846 20.3251C-0.024923 20.7682 -0.0259643 21.2288 0.0748388 21.6724C0.175642 22.116 0.375668 22.5309 0.659885 22.8861C0.939242 23.2398 1.29528 23.5255 1.70115 23.7216C2.10703 23.9177 2.55213 24.0191 3.00288 24.0181H20.5429C20.9936 24.0191 21.4387 23.9177 21.8446 23.7216C22.2505 23.5255 22.6065 23.2398 22.8859 22.8861C23.1709 22.5315 23.3719 22.1169 23.4735 21.6735C23.5752 21.2301 23.575 20.7694 23.4729 20.3261ZM11.7729 2.01807C12.9596 2.01807 14.1196 2.36997 15.1063 3.02926C16.093 3.68855 16.862 4.62562 17.3162 5.72197C17.7703 6.81833 17.8891 8.02473 17.6576 9.18862C17.4261 10.3525 16.8546 11.4216 16.0155 12.2607C15.1764 13.0998 14.1073 13.6713 12.9434 13.9028C11.7795 14.1343 10.5731 14.0155 9.47678 13.5614C8.38043 13.1072 7.44336 12.3382 6.78407 11.3515C6.12478 10.3648 5.77288 9.20476 5.77288 8.01807C5.77447 6.42726 6.40712 4.90206 7.532 3.77719C8.65687 2.65231 10.1821 2.01966 11.7729 2.01807ZM21.3219 21.6411C21.2295 21.7592 21.1112 21.8547 20.9762 21.92C20.8411 21.9854 20.6929 22.0189 20.5429 22.0181H3.00288C2.85287 22.0189 2.70465 21.9854 2.56961 21.92C2.43458 21.8547 2.31631 21.7592 2.22388 21.6411C2.12716 21.5205 2.05894 21.3796 2.02431 21.229C1.98967 21.0783 1.98953 20.9218 2.02388 20.7711C2.33429 19.4163 2.92649 18.1421 3.76194 17.0313C4.59739 15.9205 5.65736 14.9981 6.87288 14.3241C8.27262 15.4222 10.0003 16.019 11.7794 16.019C13.5585 16.019 15.2861 15.4222 16.6859 14.3241C17.8987 15.0008 18.956 15.9246 19.7894 17.0357C20.6227 18.1467 21.2136 19.4203 21.5239 20.7741C21.5576 20.9245 21.557 21.0806 21.522 21.2307C21.4871 21.3808 21.4186 21.5211 21.3219 21.6411Z" fill="black"/>
</g>
<defs>
<clipPath id="clip0_3_19">
<rect width="24" height="24" fill="white"/>
</clipPath>
</defs>
</svg>
