<svg width="148" height="26" viewBox="0 0 148 26" fill="none" xmlns="http://www.w3.org/2000/svg">
<path d="M12.0209 2.6H19.0929V3.528C18.6662 3.72 18.2502 3.88 17.8449 4.008C17.4395 4.136 17.0449 4.24267 16.6609 4.328L10.2289 12.84C10.7622 13.544 11.3702 14.3333 12.0529 15.208C12.7569 16.0827 13.4822 16.9893 14.2289 17.928C14.9969 18.8453 15.7755 19.784 16.5649 20.744C17.3755 21.6827 18.1649 22.5787 18.9329 23.432L20.4689 24.2V25H16.4689L15.3809 24.232C14.1222 22.76 12.8635 21.1707 11.6049 19.464C10.3675 17.7573 9.16221 16.0293 7.98888 14.28H6.42088V23.304C7.40221 23.4747 8.20221 23.7307 8.82088 24.072V25H0.724875V24.072C1.57821 23.7307 2.45288 23.4747 3.34888 23.304V4.328C2.38888 4.2 1.51421 3.93333 0.724875 3.528V2.6H8.82088V3.528C8.47954 3.67733 8.10621 3.82667 7.70088 3.976C7.29554 4.104 6.86888 4.22133 6.42088 4.328V13.192L8.34088 12.744L14.3249 4.328C13.8982 4.22133 13.4929 4.104 13.1089 3.976C12.7249 3.848 12.3622 3.69867 12.0209 3.528V2.6ZM20.2651 17C20.2651 15.656 20.4358 14.472 20.7771 13.448C21.1398 12.4027 21.6518 11.528 22.3131 10.824C22.9745 10.0987 23.7638 9.55467 24.6811 9.192C25.6198 8.808 26.6545 8.616 27.7851 8.616C29.1078 8.616 30.2491 8.81867 31.2091 9.224C32.1691 9.62933 32.9478 10.2053 33.5451 10.952C34.1638 11.6773 34.6118 12.552 34.8891 13.576C35.1878 14.6 35.3371 15.7413 35.3371 17C35.3371 19.688 34.6545 21.7573 33.2891 23.208C31.9238 24.6587 30.0891 25.384 27.7851 25.384C26.5051 25.384 25.3958 25.192 24.4571 24.808C23.5185 24.4027 22.7398 23.8373 22.1211 23.112C21.5025 22.3653 21.0331 21.48 20.7131 20.456C20.4145 19.4107 20.2651 18.2587 20.2651 17ZM23.3371 17C23.3371 17.96 23.4225 18.8667 23.5931 19.72C23.7851 20.5733 24.0731 21.32 24.4571 21.96C24.8625 22.5787 25.3851 23.0693 26.0251 23.432C26.6651 23.7947 27.4331 23.976 28.3291 23.976C29.4811 23.976 30.4198 23.4107 31.1451 22.28C31.8918 21.1493 32.2651 19.3893 32.2651 17C32.2651 16.0187 32.1691 15.112 31.9771 14.28C31.8065 13.4267 31.5291 12.6907 31.1451 12.072C30.7611 11.432 30.2705 10.9307 29.6731 10.568C29.0758 10.2053 28.3611 10.024 27.5291 10.024C26.2705 10.024 25.2571 10.5893 24.4891 11.72C23.7211 12.8507 23.3371 14.6107 23.3371 17ZM50.3046 22.76C49.9206 23.5067 49.2913 24.136 48.4166 24.648C47.5633 25.1387 46.5606 25.384 45.4086 25.384C44.15 25.384 43.0513 25.192 42.1126 24.808C41.1953 24.4027 40.4273 23.8373 39.8086 23.112C39.19 22.3653 38.7206 21.48 38.4006 20.456C38.102 19.4107 37.9526 18.2587 37.9526 17C37.9526 14.2907 38.614 12.2213 39.9366 10.792C41.2593 9.34133 43.062 8.616 45.3446 8.616C46.39 8.616 47.318 8.712 48.1286 8.904C48.9606 9.07467 49.6646 9.30933 50.2406 9.608C50.1766 10.312 50.0593 11.1013 49.8886 11.976C49.718 12.8507 49.5046 13.576 49.2486 14.152H48.3846L47.0406 10.344C46.8913 10.2373 46.7206 10.1627 46.5286 10.12C46.3366 10.056 46.0166 10.024 45.5686 10.024C44.118 10.024 42.998 10.5573 42.2086 11.624C41.4193 12.6693 41.0246 14.4507 41.0246 16.968C41.0246 17.7787 41.1313 18.568 41.3446 19.336C41.5793 20.104 41.9206 20.7973 42.3686 21.416C42.838 22.0133 43.414 22.4933 44.0966 22.856C44.8006 23.2187 45.6113 23.4 46.5286 23.4C47.2753 23.4 47.926 23.2933 48.4806 23.08C49.0353 22.8667 49.5046 22.6107 49.8886 22.312L50.3046 22.76ZM69.7869 25H62.8749V24.2C63.3869 23.9227 64.0269 23.6667 64.7949 23.432V15.944C64.7949 14.28 64.5602 12.9787 64.0909 12.04C63.6215 11.08 62.7682 10.6 61.5309 10.6C60.9762 10.6 60.4749 10.7067 60.0269 10.92C59.5789 11.112 59.1735 11.368 58.8109 11.688C58.4482 12.008 58.1389 12.3813 57.8829 12.808C57.6269 13.2133 57.4349 13.64 57.3069 14.088V23.432C57.6482 23.5173 57.9682 23.6133 58.2669 23.72C58.5869 23.8267 58.8962 23.9867 59.1949 24.2V25H52.3149V24.2C52.9762 23.8587 53.6802 23.6027 54.4269 23.432V3.176L51.9949 2.92V2.088C52.6135 1.832 53.3282 1.608 54.1389 1.416C54.9709 1.224 55.7602 1.064 56.5069 0.935999H57.3069V12.232H57.3389C57.7869 11.2293 58.4269 10.376 59.2589 9.672C60.1122 8.968 61.1362 8.616 62.3309 8.616C63.1842 8.616 63.9415 8.72267 64.6029 8.936C65.2855 9.128 65.8509 9.48 66.2989 9.992C66.7469 10.504 67.0882 11.1973 67.3229 12.072C67.5575 12.9253 67.6749 14.0133 67.6749 15.336V23.432C68.0375 23.5173 68.4002 23.6133 68.7629 23.72C69.1255 23.8267 69.4669 23.9867 69.7869 24.2V25ZM84.6001 22.76C84.4295 23.1227 84.1628 23.464 83.8001 23.784C83.4375 24.104 83.0215 24.3813 82.5521 24.616C82.0828 24.8507 81.5708 25.032 81.0161 25.16C80.4615 25.3093 79.8961 25.384 79.3201 25.384C78.0615 25.384 76.9521 25.192 75.9921 24.808C75.0321 24.4027 74.2321 23.8373 73.5921 23.112C72.9521 22.3653 72.4615 21.48 72.1201 20.456C71.8001 19.432 71.6401 18.28 71.6401 17C71.6401 14.2693 72.2695 12.1893 73.5281 10.76C74.7868 9.33067 76.5681 8.616 78.8721 8.616C79.6188 8.616 80.3548 8.72267 81.0801 8.936C81.8055 9.128 82.4455 9.45867 83.0001 9.928C83.5761 10.3973 84.0348 11.0267 84.3761 11.816C84.7388 12.584 84.9201 13.544 84.9201 14.696C84.9201 15.0587 84.8988 15.432 84.8561 15.816C84.8348 16.1787 84.7815 16.5733 84.6961 17H74.7121C74.7121 17.896 74.8188 18.7387 75.0321 19.528C75.2668 20.296 75.6081 20.968 76.0561 21.544C76.5041 22.12 77.0695 22.5787 77.7521 22.92C78.4348 23.24 79.2348 23.4 80.1521 23.4C80.8988 23.4 81.6561 23.2933 82.4241 23.08C83.1921 22.8667 83.7681 22.5893 84.1521 22.248L84.6001 22.76ZM78.7441 10.024C77.5281 10.024 76.6001 10.44 75.9601 11.272C75.3201 12.0827 74.9361 13.5227 74.8081 15.592H81.8481C81.8695 15.4 81.8801 15.2187 81.8801 15.048C81.9015 14.856 81.9121 14.6747 81.9121 14.504C81.9121 13.1387 81.6561 12.0507 81.1441 11.24C80.6321 10.4293 79.8321 10.024 78.7441 10.024ZM93.4754 25.384L87.2354 10.6C86.6167 10.3867 86.0514 10.1307 85.5394 9.832V9H92.2274V9.8C91.95 9.94933 91.662 10.0987 91.3634 10.248C91.086 10.376 90.766 10.4933 90.4034 10.6L94.1154 20.232L94.7554 22.216H94.8194L95.2994 20.2L98.7234 10.6C98.382 10.5147 98.062 10.408 97.7634 10.28C97.486 10.152 97.2194 10.0027 96.9634 9.832V9H102.403V9.832C102.19 9.98133 101.923 10.12 101.603 10.248C101.305 10.376 100.963 10.4933 100.579 10.6L94.9154 25L93.4754 25.384ZM120.542 25H113.662V24.2C114.238 23.9013 114.867 23.6453 115.55 23.432V15.848C115.55 14.2267 115.315 12.9467 114.846 12.008C114.377 11.0693 113.523 10.6 112.286 10.6C111.753 10.6 111.251 10.696 110.782 10.888C110.334 11.08 109.929 11.3467 109.566 11.688C109.225 12.008 108.926 12.3813 108.67 12.808C108.414 13.2133 108.211 13.64 108.062 14.088V23.432C108.723 23.56 109.363 23.816 109.982 24.2V25H103.07V24.2C103.603 23.9227 104.307 23.6667 105.182 23.432V10.856L103.07 10.6V9.768C103.625 9.53333 104.265 9.32 104.99 9.128C105.715 8.936 106.473 8.76533 107.262 8.616H108.062V12.2H108.094C108.542 11.2187 109.182 10.376 110.014 9.672C110.867 8.968 111.891 8.616 113.086 8.616C113.939 8.616 114.697 8.72267 115.358 8.936C116.041 9.128 116.606 9.48 117.054 9.992C117.502 10.504 117.843 11.1973 118.078 12.072C118.313 12.9253 118.43 14.0133 118.43 15.336V23.432C119.283 23.5813 119.987 23.8373 120.542 24.2V25ZM129.494 25H122.39V24.2C122.71 24.0293 123.041 23.8907 123.382 23.784C123.723 23.656 124.097 23.5387 124.502 23.432V10.856L122.39 10.6V9.768C123.009 9.512 123.681 9.288 124.406 9.096C125.131 8.904 125.857 8.744 126.582 8.616H127.382V23.432C127.809 23.5387 128.193 23.656 128.534 23.784C128.875 23.8907 129.195 24.0293 129.494 24.2V25ZM123.894 3.56C123.894 2.984 124.075 2.52533 124.438 2.184C124.822 1.84267 125.323 1.672 125.942 1.672C126.561 1.672 127.051 1.84267 127.414 2.184C127.777 2.52533 127.958 2.984 127.958 3.56C127.958 4.136 127.777 4.59467 127.414 4.936C127.051 5.256 126.561 5.416 125.942 5.416C125.323 5.416 124.822 5.256 124.438 4.936C124.075 4.59467 123.894 4.136 123.894 3.56ZM140.303 9H146.479V9.832C146.074 10.0027 145.668 10.152 145.263 10.28C144.879 10.408 144.474 10.5147 144.047 10.6C143.727 11.0267 143.354 11.4853 142.927 11.976C142.522 12.4667 142.106 12.9573 141.679 13.448C141.252 13.9387 140.836 14.3973 140.431 14.824C140.047 15.2507 139.716 15.6027 139.439 15.88C139.759 16.3067 140.143 16.8293 140.591 17.448C141.06 18.0453 141.562 18.6853 142.095 19.368C142.628 20.0507 143.172 20.744 143.727 21.448C144.303 22.152 144.868 22.8133 145.423 23.432L147.215 24.2V25H143.247L142.383 24.232C141.252 22.824 140.314 21.576 139.567 20.488C138.82 19.3787 138.138 18.344 137.519 17.384L136.463 17.064V23.432C137.167 23.56 137.86 23.816 138.543 24.2V25H131.471V24.2C132.175 23.8587 132.879 23.6027 133.583 23.432V3.176L131.151 2.92V2.088C131.748 1.81067 132.463 1.58667 133.295 1.416C134.127 1.24533 134.916 1.08533 135.663 0.935999H136.463V16.232H137.295C137.636 15.848 138.01 15.4213 138.415 14.952C138.82 14.4827 139.226 14.0027 139.631 13.512C140.036 13 140.431 12.4987 140.815 12.008C141.199 11.5173 141.551 11.048 141.871 10.6C141.338 10.4507 140.815 10.1947 140.303 9.832V9Z" fill="black"/>
</svg>
